# xmcd
#
# Track frame offsets:
#	150
#	12921
#	27475
#	45742
#	65294
#	80140
#	96520
#	109787
#	124574
#	140629
#	157248
#	170576
#	187148
#	202447
#	219668
#	239193
#	255275
#	272980
#
# Disc length: 3846 seconds
#
# Revision: 4
# Processed by: cddbd v1.5.1PL0 Copyright (c) Steve Scherf et al.
# Submitted via: EasyCDDAExtractor 8.0.1.1
#
DISCID=210f0412
DTITLE=Bellamy Brothers - Let Your Love Flow (20 Years Of Hits) - Disc 1
DYEAR=1994
DGENRE=Country
TTITLE0=Let Your Love Flow
TTITLE1=If I Said You Had A Beautiful Body (Would You Hold It Against Me)
TTITLE2=Old Hippie
TTITLE3=You Ain't Just Whistlin' Dixie
TTITLE4=Dancin' Cowboys
TTITLE5=Sugar Daddy
TTITLE6=You're My Favorite Star
TTITLE7=Lovers Live Longer
TTITLE8=Crazy From The Heart
TTITLE9=Feelin' The Feelin'
TTITLE10=Do You Love As Good As You Look
TTITLE11=For All The Wrong Reasons
TTITLE12=Redneck Girl
TTITLE13=When I'm Away From You
TTITLE14=World's Greatest Lover
TTITLE15=Forget About Me
TTITLE16=Get Into Reggae Cowboy (Dance Mix)
TTITLE17=Kids Of The Baby Boom
EXTD=
EXTT0=
EXTT1=
EXTT2=
EXTT3=
EXTT4=
EXTT5=
EXTT6=
EXTT7=
EXTT8=
EXTT9=
EXTT10=
EXTT11=
EXTT12=
EXTT13=
EXTT14=
EXTT15=
EXTT16=
EXTT17=
PLAYORDER=
